<svg width="146" height="136" viewBox="0 0 146 136" fill="none" xmlns="http://www.w3.org/2000/svg">
<rect width="146" height="136" rx="32" fill="white"/>
<path d="M49.984 114.624C42.56 114.624 36.96 112.832 33.184 109.248C29.472 105.664 27.616 100.64 27.616 94.176V82.08C27.616 80.608 27.232 79.552 26.464 78.912C25.696 78.208 24.704 77.856 23.488 77.856H20.32V61.536H23.488C24.704 61.536 25.696 61.184 26.464 60.48C27.232 59.776 27.616 58.72 27.616 57.312V45.216C27.616 38.752 29.472 33.728 33.184 30.144C36.96 26.56 42.56 24.768 49.984 24.768H57.088V41.088H56.128C53.888 41.088 52.192 41.664 51.04 42.816C49.888 43.968 49.312 45.6 49.312 47.712V56.832C49.312 60.352 48.8 63.104 47.776 65.088C46.752 67.008 45.12 68.384 42.88 69.216C40.704 70.048 37.888 70.592 34.432 70.848V68.544C37.888 68.8 40.704 69.344 42.88 70.176C45.12 71.008 46.752 72.416 47.776 74.4C48.8 76.32 49.312 79.04 49.312 82.56V91.68C49.312 93.792 49.888 95.424 51.04 96.576C52.192 97.728 53.888 98.304 56.128 98.304H57.088V114.624H49.984ZM94.939 114.624H87.835V98.304H88.795C91.035 98.304 92.731 97.728 93.883 96.576C95.035 95.424 95.611 93.792 95.611 91.68V82.56C95.611 79.04 96.123 76.32 97.147 74.4C98.235 72.416 99.867 71.008 102.043 70.176C104.219 69.344 107.035 68.8 110.491 68.544V70.848C107.035 70.592 104.219 70.048 102.043 69.216C99.867 68.384 98.235 67.008 97.147 65.088C96.123 63.104 95.611 60.352 95.611 56.832V47.712C95.611 45.6 95.035 43.968 93.883 42.816C92.731 41.664 91.035 41.088 88.795 41.088H87.835V24.768H94.939C102.363 24.768 107.931 26.56 111.643 30.144C115.419 33.728 117.307 38.752 117.307 45.216V57.312C117.307 58.72 117.691 59.776 118.459 60.48C119.227 61.184 120.219 61.536 121.435 61.536H124.603V77.856H121.435C120.219 77.856 119.227 78.208 118.459 78.912C117.691 79.552 117.307 80.608 117.307 82.08V94.176C117.307 100.64 115.419 105.664 111.643 109.248C107.931 112.832 102.363 114.624 94.939 114.624Z" fill="black"/>
</svg>
